<svg xmlns="http://www.w3.org/2000/svg" viewBox="0 0 413.32 68.85"><defs><style>.cls-1{fill:#00aeef;}.cls-2{fill:#1aaee4;}</style></defs><title>BarclaysLogo240</title><g id="Layer_2" data-name="Layer 2"><g id="Layer_1-2" data-name="Layer 1"><path class="cls-1" d="M94.65,60H76.23c2.32-2.05,2.94-10,4-24.09l.2-3.27c.55-8,1-14.12.89-18.42-.07-3.69-.48-6.08-1.5-6.89h20.6c4.91,0,14.74.27,14.74,10.51,0,6.82-6.35,11.05-12.15,12.56,8.19.82,14.33,4.77,14.33,13.23,0,9.14-8.6,16.37-22.65,16.37M93.83,34.6H90.08l-.55,7.78c-.27,3.41-.41,6.28-.48,9.69,0,.48,1.5,1.5,5,1.5,7.37,0,12.22-3.68,12.22-9.76,0-6.75-5.53-9.21-12.49-9.21m1.7-20.88a35.38,35.38,0,0,0-3.68.14C91.31,17.55,91,21.09,90.7,25c0,0-.21,3.34-.21,3.2h1.36c6.69,0,12.83-2.32,12.83-8.45,0-3.55-2.94-6-9.15-6m64.95,46.8c-4.5,0-4.84-.13-8.46-12.55l-1.3-4.57c-2.19,1-6.07,1.5-12.28,1.5h-6.28l-1.09,2.32c-1.09,2.46-3.75,7.51-3.68,10.44a8.63,8.63,0,0,0,.34,2.39H115.12c3.61-3.62,8.19-12,14.53-25.58l3.69-7.85c3.34-7.09,6.89-15.15,6.89-16.31a7.3,7.3,0,0,0-.68-2.93H151s3,11.39,5.66,20.88l2.25,8.33c3.89,14,6.35,20.81,9.62,23.47-2.93.34-6.62.47-8.05.47M143.91,19.73l-8.53,18.35h13.85l-5.32-18.35M210.36,62.3c-3.89,0-4.84-.62-6.14-2.39L189.48,39.44c-1.16-1.57-2-2.86-3.89-2.86h-.34l-.27,4c-.34,5.39-.55,9.69-.55,12.9.07,3.55.48,5.73,1.43,6.62H171.61c2-1.84,2.79-8,4-24.09l.21-3.34c.54-7.91,1-14.06.88-18.35-.07-3.75-.47-6.08-1.5-6.89H194.6c6.34,0,15.08,1.1,15.08,11.39,0,8.46-5.67,13.1-12.69,15.28a34,34,0,0,1,2.66,3.14l10.71,14.19c6.69,8.8,7.23,9.21,9.62,10.44-3,.34-7,.48-9.62.48m-19-48.51a40.72,40.72,0,0,0-4.09.14c-.41,2.25-.75,6.14-1.23,12.41L185.73,30a12.89,12.89,0,0,0,2.39.21c6.55,0,11.05-4,11.05-10,0-4.1-2.87-6.48-7.85-6.48M238.4,61.07C224.82,61.07,217,49.88,217,37.33c0-17.46,9.48-31,27.56-31,5.66,0,8.33,1,12.89,1l-1.36,13.44c-2.59-4.71-6.82-7.92-12.48-7.92-11.26,0-15.83,12.15-15.83,22.59,0,11.32,6.35,17.53,14.8,17.53,4.57,0,8.59-1.23,15.35-5.94-2.73,8.73-9.07,14-19.51,14m92.85-.55c-4.51,0-4.84-.13-8.46-12.55L321.5,43.4c-2.18,1-6.07,1.5-12.28,1.5h-6.28l-1.09,2.32c-1.57,3.48-3.68,7.57-3.68,10.44A8.28,8.28,0,0,0,298.5,60H261.25c2.12-2.39,2.8-10.1,3.82-24.09l.2-3.34c.55-8,1-14.12.89-18.42-.07-3.55-.41-5.8-1.36-6.82h14.4c-2.05,1.57-2.8,10-3.76,24l-.27,3.34c-.34,5.19-1,10.51-1,15.69,0,2.38,1,2.93,3.42,2.93,8.73,0,10.92-.2,14.87-2.86,2.46-4.5,5.26-10.17,8-16l3.69-7.85c3.48-7.37,6.89-14.88,6.89-16.31a7.44,7.44,0,0,0-.68-2.93h11.46s4.64,17.19,5.66,20.88l2.25,8.33c3.89,14,6.35,20.81,9.62,23.47-2.73.34-6.62.48-8.06.48M314.67,19.73l-8.46,18.35H320l-5.32-18.35m49.6,11.93c-1.23,2-2.79,4.84-3.76,6.89a75.69,75.69,0,0,0-1.23,14.8c0,2.39.41,5.6,1.5,6.69H346.53c2.52-2.39,3.55-17.05,3.41-21.69a112.35,112.35,0,0,0-8.46-20.67c-2.52-4.84-5.45-9.42-7.3-10.3,3.2-.27,7.3-.48,9.28-.48,3.55,0,4.5.48,6.69,5.25,3.4,7.71,5.93,13.5,7.43,17.81,3.62-5.67,6.14-9.55,9.42-14.87a8.87,8.87,0,0,0,1.5-4.5,5.46,5.46,0,0,0-.75-3.21h14.12c-2.73.61-15,19.92-17.6,24.29M412,19.86a14,14,0,0,0-12-7c-4.5,0-8.46,1.84-8.46,6.62,0,4,5,6.75,10.17,10.1,5.66,3.55,11.53,7.91,11.53,15.49,0,9.89-9.62,16-20.74,16a40.91,40.91,0,0,1-14.73-2.93L378.6,45c2.59,5.26,7.44,9.42,14.6,9.42,5.53,0,9.62-2.66,9.62-7.3,0-4-3.35-6.41-7.43-8.87-8.6-5.19-14.05-9.35-14.05-16.85,0-11.26,9.41-15,19.17-15,5.66,0,9.21,1,12.82,1L412,19.86"/><path class="cls-2" d="M29.77,0C27.95,0,27.57.32,27,1l-.73,0A8.48,8.48,0,0,0,21.5,2.2c-1.49,1-2.19,2.72-1.4,4,0,0,.53-.78,2.28-.78.25,0,.52,0,.81.05,2.41.29,4.2,1.56,4,4.91s-1.45,7.09-6.59,7.13c0,0-.66,0-1.37-.07a3.89,3.89,0,0,1-3.15-1.76,3.13,3.13,0,0,0,2.09-3.19c0-1.79-1.57-3.42-3.82-4.08a8.56,8.56,0,0,0-2.38-.32A9.58,9.58,0,0,0,4.33,11.8C-.21,17.8-.58,26.54.53,34.67S6.81,50.36,7,50.56s.21.23.32.23a.28.28,0,0,0,.18-.08,27.45,27.45,0,0,0,5.27-7.1c1,.78.46,2.43-.07,4.19a26.84,26.84,0,0,1-2.19,5c-.43.75-1,1.63-.23,2.09a.56.56,0,0,0,.3.08c1,0,3.35-1.74,6-5.24a40.45,40.45,0,0,0,4.43-7.44c.21,0,.57.41.52,1.4a24.83,24.83,0,0,1-3.09,8.24,47.63,47.63,0,0,1-4.3,6.16c-.23.29,0,.47.12.58a50.48,50.48,0,0,0,9,6.31c6.2,3.31,9,3.9,9,3.9s2.74-.58,8.95-3.88a48.44,48.44,0,0,0,9-6.34.36.36,0,0,0,.12-.58,48.09,48.09,0,0,1-4.28-6.15,24.4,24.4,0,0,1-3.1-8.23c0-1,.3-1.33.5-1.42a40.34,40.34,0,0,0,4.45,7.44c2.64,3.5,5,5.25,6,5.25a.61.61,0,0,0,.31-.07c.75-.46.19-1.35-.25-2.09a30.59,30.59,0,0,1-2.2-5c-.51-1.78-1-3.43-.05-4.19a26.82,26.82,0,0,0,5.26,7.09.27.27,0,0,0,.19.09.41.41,0,0,0,.3-.21c.16-.22,5.34-7.75,6.44-15.91s.74-16.87-3.8-22.86a9.58,9.58,0,0,0-7.65-3.74,8.56,8.56,0,0,0-2.35.31c-2.26.68-3.81,2.33-3.8,4.1a3.11,3.11,0,0,0,2.08,3.19A3.87,3.87,0,0,1,45,17.43a11,11,0,0,1-1.34.08,5.48,5.48,0,0,1-4.88-2.64c-1.4-2-1.36-6-1.44-7.37S37,3.06,35.58,1.8A8,8,0,0,0,30.21,0h-.44"/></g></g></svg>