<svg xmlns="http://www.w3.org/2000/svg" viewBox="-295.9 385.6 17.8 17.8"><path d="M-278.1 394.5c0-.6-.4-1-1-1h-.1c-.4-3.6-3.3-6.4-6.8-6.8v-.1c0-.5-.4-1-.9-1h-.2c-.5 0-.9.5-.9 1v.1c-3.5.4-6.4 3.3-6.8 6.8h-.1c-.5 0-1 .4-1 .9v.2c0 .5.4.9 1 .9h.1c.4 3.6 3.3 6.4 6.8 6.8v.1c0 .5.4 1 .9 1h.2c.5 0 .9-.4.9-1v-.1c3.6-.4 6.4-3.3 6.8-6.8h.1c.5 0 1-.4 1-1zm-7.9 5.8v-.9c0-.5-.4-1-1-1s-1 .4-1 1v.9c-2.5-.4-4.4-2.4-4.8-4.8h.9c.5 0 1-.4 1-1s-.4-1-1-1h-.9c.4-2.5 2.3-4.4 4.8-4.8v.9c0 .5.4 1 1 1s1-.4 1-1v-.9c2.5.4 4.4 2.4 4.8 4.8h-.9c-.5 0-1 .4-1 1s.4 1 1 1h.9c-.4 2.5-2.3 4.4-4.8 4.8z"/></svg>